<?xml version="1.0" standalone="no"?>
<!DOCTYPE svg PUBLIC "-//W3C//DTD SVG 20010904//EN"
 "http://www.w3.org/TR/2001/REC-SVG-20010904/DTD/svg10.dtd">
<svg version="1.0" xmlns="http://www.w3.org/2000/svg"
 width="1000.000000pt" height="1000.000000pt" viewBox="0 0 1000.000000 1000.000000"
 preserveAspectRatio="xMidYMid meet">
<metadata>
Created by potrace 1.16, written by Peter Selinger 2001-2019
</metadata>
<g transform="translate(0.000000,1000.000000) scale(0.100000,-0.100000)"
fill="#000000" stroke="none">
<path d="M3576 8235 c-187 -66 -197 -210 -81 -1087 30 -223 73 -545 95 -715
22 -169 58 -420 80 -558 65 -416 67 -510 11 -668 -51 -145 -66 -250 -66 -462
0 -224 13 -302 82 -510 57 -172 123 -279 276 -444 90 -97 172 -204 211 -274
39 -70 76 -187 76 -239 l0 -36 -64 -7 c-42 -4 -70 -13 -80 -24 -13 -15 -18
-66 -25 -312 -6 -170 -6 -298 -1 -303 5 -5 1 -24 -9 -45 -62 -122 -116 -362
-132 -591 -20 -287 4 -519 62 -617 82 -137 301 -183 939 -199 408 -10 772 15
925 63 144 46 203 111 236 263 21 97 18 500 -4 646 -27 174 -89 380 -126 417
-6 6 -11 22 -11 34 0 22 -3 23 -37 18 -21 -3 -60 -11 -88 -18 -63 -14 -992
-16 -1015 -2 -8 5 -21 10 -29 12 -36 5 -71 27 -71 44 0 11 -6 18 -12 16 -17
-3 -28 106 -29 298 -1 83 -3 140 -6 128 -7 -38 -23 -26 -23 17 0 37 -3 41 -31
47 -18 3 -26 9 -19 13 13 8 -30 16 -140 26 -36 3 -94 9 -130 12 -36 4 225 7
580 8 355 0 684 4 732 8 l87 8 -15 23 c-9 13 -14 28 -11 32 3 4 8 33 12 63 4
30 11 62 15 70 4 8 13 42 19 75 22 111 68 235 175 470 40 88 79 183 86 210 8
28 21 61 29 75 12 17 12 22 2 16 -10 -7 -12 -3 -6 14 8 26 8 124 0 151 -8 25
-41 24 -55 -1 -6 -11 -19 -20 -29 -20 -11 0 -21 -7 -25 -15 -9 -24 -97 -20
-119 5 -10 12 -15 26 -11 32 5 7 2 8 -5 4 -8 -5 -14 0 -18 13 -3 12 -9 21 -14
21 -5 0 -9 16 -9 36 0 19 -7 42 -15 51 -9 8 -19 28 -22 44 -3 16 -9 29 -14 29
-4 0 -11 21 -14 48 -3 26 -14 79 -23 117 -20 85 -23 426 -3 433 6 2 11 12 11
21 0 21 40 61 62 61 11 0 18 13 23 40 6 34 11 40 31 40 17 0 24 6 24 20 0 11
5 20 10 20 6 0 10 17 10 37 0 24 8 45 22 60 12 13 16 23 10 23 -14 0 -16 37
-2 42 19 6 31 159 22 288 -6 98 -5 128 5 138 7 8 10 19 6 25 -3 7 -3 9 1 5 9
-8 66 47 66 63 0 6 6 7 13 3 6 -4 9 -4 5 1 -4 4 -2 15 5 23 9 11 14 99 18 316
5 202 12 329 22 386 9 47 18 119 22 160 4 41 9 86 12 100 2 14 8 68 13 120 5
52 12 115 16 140 4 25 8 56 10 70 1 14 8 50 14 80 6 30 13 68 15 84 3 16 10
46 15 67 6 22 8 45 4 51 -4 7 -3 8 4 4 7 -4 12 -1 12 9 0 31 -87 -9 -124 -58
-69 -90 -77 -127 -241 -1095 -30 -177 -60 -332 -66 -343 -10 -20 -26 -21 -73
-3 -14 6 -14 2 -1 -36 10 -28 15 -85 16 -164 1 -66 3 -112 6 -101 9 36 23 41
23 7 0 -20 -5 -32 -14 -32 -10 0 -16 -37 -25 -157 -34 -451 -57 -633 -83 -658
-7 -7 -9 -2 -5 15 16 71 18 165 7 227 -12 59 -19 73 -55 108 -49 47 -64 82
-94 225 -13 58 -26 112 -30 120 -4 8 -14 36 -22 63 -7 26 -17 47 -21 47 -4 0
-8 7 -8 16 0 8 -4 12 -10 9 -5 -3 -10 3 -10 14 0 14 -6 21 -19 21 -12 0 -23
12 -32 33 -7 17 -21 40 -31 50 -13 13 -18 33 -18 76 0 63 15 161 31 203 6 15
12 42 14 61 3 34 3 34 -28 27 -18 -4 -63 -23 -100 -44 -38 -20 -79 -36 -91
-36 -12 0 -32 -11 -45 -24 -19 -21 -21 -28 -12 -67 6 -24 11 -122 11 -217 l0
-172 28 -10 c120 -44 204 -160 210 -295 6 -108 -26 -202 -43 -126 -9 40 -29
56 -105 81 -36 12 -94 33 -129 47 -37 14 -94 27 -135 30 -78 6 -236 -11 -246
-27 -3 -5 -30 -6 -62 -3 -49 5 -57 9 -61 29 -5 30 23 64 53 64 12 0 24 7 26
18 6 20 48 42 80 42 12 0 24 4 26 10 2 5 17 10 35 12 17 1 29 6 27 10 -3 4 4
8 15 8 11 0 33 14 49 30 17 17 36 30 44 30 8 0 7 4 -5 11 -9 5 -22 7 -28 3 -7
-4 -30 -8 -53 -10 -38 -2 -39 -2 -13 8 26 9 38 28 18 28 -5 0 -12 8 -16 18 -3
9 -21 28 -40 42 -19 14 -35 33 -35 43 0 9 -4 17 -10 17 -5 0 -10 8 -10 18 0
10 -9 24 -20 32 -11 8 -20 23 -20 33 0 10 -4 16 -8 13 -21 -12 -37 49 -35 130
2 72 5 85 27 109 14 15 26 36 26 46 0 10 5 21 10 24 6 4 8 11 4 16 -3 5 0 16
6 24 10 12 8 15 -11 16 -73 3 -94 -6 -189 -81 -14 -11 -49 -26 -78 -33 -29 -7
-53 -17 -53 -23 -1 -10 -12 -8 -54 12 -16 7 -47 16 -68 18 -22 3 -48 14 -61
28 -13 13 -39 38 -60 55 -20 18 -41 44 -48 58 -6 14 -18 25 -25 25 -8 0 -12 4
-8 9 3 6 -3 18 -13 28 -11 10 -25 36 -32 58 -7 22 -18 47 -26 55 -7 8 -14 41
-15 73 -1 31 -6 57 -10 57 -4 0 -11 21 -14 48 -9 68 -25 142 -40 177 -23 59
-33 95 -25 95 4 0 6 9 3 20 -3 11 -9 20 -13 20 -4 0 -13 27 -20 60 -7 33 -16
60 -20 60 -9 0 -30 93 -30 131 0 16 -4 29 -10 29 -5 0 -10 22 -10 49 0 66 -10
112 -23 104 -6 -3 -7 -1 -3 5 4 7 4 18 -1 25 -4 6 -8 14 -8 17 -1 3 -7 32 -14
65 -49 238 -67 411 -50 478 6 26 9 53 5 62 -3 8 -1 15 4 15 6 0 10 6 10 14 0
8 9 18 20 21 28 9 26 35 -2 35 -13 -1 -41 -7 -62 -15z m1172 -3812 c50 -25 92
-50 92 -55 0 -4 7 -8 16 -8 8 0 13 -4 10 -8 -3 -5 9 -6 27 -3 20 3 25 6 14 9
-15 3 -16 6 -5 19 12 15 19 34 21 65 1 9 5 15 8 12 4 -2 10 0 14 6 10 16 50
12 68 -7 8 -10 23 -38 32 -63 9 -25 21 -53 26 -63 19 -34 19 -197 1 -241 -23
-57 -57 -62 -66 -10 -4 20 -10 34 -13 31 -3 -3 -19 9 -37 27 -29 32 -101 57
-160 57 -25 0 -116 47 -116 59 0 6 -7 10 -16 10 -9 0 -25 10 -35 22 -11 11
-19 17 -19 12 0 -27 -30 55 -36 97 -13 94 34 103 174 32z"/>
<path d="M5490 3013 c-90 -45 -158 -158 -146 -242 9 -70 35 -109 90 -136 84
-42 137 -30 232 52 62 52 94 106 94 155 -1 46 -31 107 -74 148 -32 30 -43 34
-99 37 -45 3 -72 -1 -97 -14z"/>
</g>
</svg>
